{
    "asset" : {
        "generator" : "Khronos glTF Blender I/O v3.4.50",
        "version" : "2.0"
    },
    "scene" : 0,
    "scenes" : [
        {
            "name" : "Scene",
            "nodes" : [
                0
            ]
        }
    ],
    "nodes" : [
        {
            "mesh" : 0,
            "name" : "Car",
            "rotation" : [
                0,
                0,
                -0.7071068286895752,
                0.7071068286895752
            ],
            "scale" : [
                0.30000001192092896,
                0.5,
                0.30000001192092896
            ],
            "translation" : [
                0.550000011920929,
                -1,
                1.2000000476837158
            ]
        }
    ],
    "materials" : [
        {
            "doubleSided" : true,
            "name" : "Material",
            "pbrMetallicRoughness" : {
                "baseColorFactor" : [
                    0.800000011920929,
                    0.800000011920929,
                    0.800000011920929,
                    1
                ],
                "metallicFactor" : 0,
                "roughnessFactor" : 0.5
            }
        }
    ],
    "meshes" : [
        {
            "name" : "Torus.003",
            "primitives" : [
                {
                    "attributes" : {
                        "POSITION" : 0,
                        "TEXCOORD_0" : 1,
                        "NORMAL" : 2
                    },
                    "indices" : 3,
                    "material" : 0
                }
            ]
        }
    ],
    "accessors" : [
        {
            "bufferView" : 0,
            "componentType" : 5126,
            "count" : 9350,
            "max" : [
                1.2500001192092896,
                0.8999998569488525,
                2.6666665077209473
            ],
            "min" : [
                -6.666666507720947,
                -3.1000001430511475,
                -10.666666030883789
            ],
            "type" : "VEC3"
        },
        {
            "bufferView" : 1,
            "componentType" : 5126,
            "count" : 9350,
            "type" : "VEC2"
        },
        {
            "bufferView" : 2,
            "componentType" : 5126,
            "count" : 9350,
            "type" : "VEC3"
        },
        {
            "bufferView" : 3,
            "componentType" : 5123,
            "count" : 14040,
            "type" : "SCALAR"
        }
    ],
    "bufferViews" : [
        {
            "buffer" : 0,
            "byteLength" : 112200,
            "byteOffset" : 0,
            "target" : 34962
        },
        {
            "buffer" : 0,
            "byteLength" : 74800,
            "byteOffset" : 112200,
            "target" : 34962
        },
        {
            "buffer" : 0,
            "byteLength" : 112200,
            "byteOffset" : 187000,
            "target" : 34962
        },
        {
            "buffer" : 0,
            "byteLength" : 28080,
            "byteOffset" : 299200,
            "target" : 34963
        }
    ],
    "buffers" : [
        {
            "byteLength" : 327280,
            "uri" : "data:application/octet-stream;base64,"
        }
    ]
}
