{
    "asset" : {
        "generator" : "Khronos glTF Blender I/O v3.4.50",
        "version" : "2.0"
    },
    "scene" : 0,
    "scenes" : [
        {
            "name" : "Scene",
            "nodes" : [
                0
            ]
        }
    ],
    "nodes" : [
        {
            "mesh" : 0,
            "name" : "Cube.001",
            "scale" : [
                0.20000000298023224,
                0.10000000149011612,
                0.20000000298023224
            ],
            "translation" : [
                -0.4000000059604645,
                0.9199999570846558,
                0.3999999165534973
            ]
        }
    ],
    "materials" : [
        {
            "doubleSided" : true,
            "name" : "Material",
            "pbrMetallicRoughness" : {
                "baseColorFactor" : [
                    0.800000011920929,
                    0.800000011920929,
                    0.800000011920929,
                    1
                ],
                "metallicFactor" : 0,
                "roughnessFactor" : 0.5
            }
        }
    ],
    "meshes" : [
        {
            "name" : "Cube.001",
            "primitives" : [
                {
                    "attributes" : {
                        "POSITION" : 0,
                        "TEXCOORD_0" : 1,
                        "NORMAL" : 2
                    },
                    "indices" : 3,
                    "material" : 0
                }
            ]
        }
    ],
    "accessors" : [
        {
            "bufferView" : 0,
            "componentType" : 5126,
            "count" : 600,
            "max" : [
                7,
                3.09999942779541,
                3.000000476837158
            ],
            "min" : [
                -3,
                -19.200000762939453,
                -6.999999523162842
            ],
            "type" : "VEC3"
        },
        {
            "bufferView" : 1,
            "componentType" : 5126,
            "count" : 600,
            "type" : "VEC2"
        },
        {
            "bufferView" : 2,
            "componentType" : 5126,
            "count" : 600,
            "type" : "VEC3"
        },
        {
            "bufferView" : 3,
            "componentType" : 5123,
            "count" : 1074,
            "type" : "SCALAR"
        }
    ],
    "bufferViews" : [
        {
            "buffer" : 0,
            "byteLength" : 7200,
            "byteOffset" : 0,
            "target" : 34962
        },
        {
            "buffer" : 0,
            "byteLength" : 4800,
            "byteOffset" : 7200,
            "target" : 34962
        },
        {
            "buffer" : 0,
            "byteLength" : 7200,
            "byteOffset" : 12000,
            "target" : 34962
        },
        {
            "buffer" : 0,
            "byteLength" : 2148,
            "byteOffset" : 19200,
            "target" : 34963
        }
    ],
    "buffers" : [
        {
            "byteLength" : 21348,
            "uri" : "data:application/octet-stream;base64,"
        }
    ]
}
