# Blender 3.4.1
# www.blender.org
mtllib light.mtl
o Cube.001
v -0.200000 0.832060 0.276558
v -0.200000 1.029022 0.311288
v -0.200000 0.970978 -0.511288
v -0.200000 1.167940 -0.476558
v 0.200000 0.832060 0.276558
v 0.200000 1.029022 0.311288
v 0.200000 0.970978 -0.511288
v 0.200000 1.167940 -0.476558
v 0.100000 1.000000 -0.100000
v 0.100000 -1.000000 -0.100000
v 0.100000 1.000000 0.100000
v 0.100000 -1.000000 0.100000
v -0.100000 1.000000 -0.100000
v -0.100000 -1.000000 -0.100000
v -0.100000 1.000000 0.100000
v -0.100000 -1.000000 0.100000
vn -1.0000 -0.0000 -0.0000
vn -0.0000 0.1736 -0.9848
vn 1.0000 -0.0000 -0.0000
vn -0.0000 -0.1736 0.9848
vn -0.0000 -0.9848 -0.1736
vn -0.0000 0.9848 0.1736
vn -0.0000 1.0000 -0.0000
vn -0.0000 -0.0000 1.0000
vn -0.0000 -1.0000 -0.0000
vn -0.0000 -0.0000 -1.0000
vt 0.375000 0.000000
vt 0.375000 1.000000
vt 0.125000 0.750000
vt 0.625000 0.000000
vt 0.625000 1.000000
vt 0.875000 0.750000
vt 0.125000 0.500000
vt 0.375000 0.250000
vt 0.625000 0.250000
vt 0.875000 0.500000
vt 0.375000 0.750000
vt 0.625000 0.750000
vt 0.375000 0.500000
vt 0.625000 0.500000
vt 0.625000 0.500000
vt 0.375000 0.500000
vt 0.625000 0.750000
vt 0.375000 0.750000
vt 0.875000 0.500000
vt 0.625000 0.250000
vt 0.125000 0.500000
vt 0.375000 0.250000
vt 0.875000 0.750000
vt 0.625000 1.000000
vt 0.625000 0.000000
vt 0.375000 1.000000
vt 0.375000 0.000000
vt 0.125000 0.750000
s 0
usemtl Material
f 2/4/1 3/8/1 1/1/1
f 4/9/2 7/13/2 3/8/2
f 8/14/3 5/11/3 7/13/3
f 6/12/4 1/2/4 5/11/4
f 7/13/5 1/3/5 3/7/5
f 4/10/6 6/12/6 8/14/6
f 13/19/7 11/17/7 9/15/7
f 11/17/8 16/26/8 12/18/8
f 16/27/1 13/20/1 14/22/1
f 10/16/9 16/28/9 14/21/9
f 9/15/3 12/18/3 10/16/3
f 13/20/10 10/16/10 14/22/10
f 2/4/1 4/9/1 3/8/1
f 4/9/2 8/14/2 7/13/2
f 8/14/3 6/12/3 5/11/3
f 6/12/4 2/5/4 1/2/4
f 7/13/5 5/11/5 1/3/5
f 4/10/6 2/6/6 6/12/6
f 13/19/7 15/23/7 11/17/7
f 11/17/8 15/24/8 16/26/8
f 16/27/1 15/25/1 13/20/1
f 10/16/9 12/18/9 16/28/9
f 9/15/3 11/17/3 12/18/3
f 13/20/10 9/15/10 10/16/10
